<?xml version="1.0" encoding="utf-8"?>
<!-- Generator: Adobe Illustrator 19.0.0, SVG Export Plug-In . SVG Version: 6.00 Build 0)  -->
<svg version="1.1" xmlns="http://www.w3.org/2000/svg" xmlns:xlink="http://www.w3.org/1999/xlink" x="0px" y="0px"
	 viewBox="0 0 728.3 693.9" style="enable-background:new 0 0 728.3 693.9;" xml:space="preserve">
<style type="text/css">
	.st0{fill:#1D242D;stroke:#2A4768;stroke-width:20;stroke-miterlimit:10;}
	.st1{fill:#2A4768;}
	.st2{fill:none;stroke:#2A4768;stroke-width:20;stroke-linecap:round;stroke-linejoin:round;stroke-miterlimit:10;}
	.st3{fill:url(#XMLID_19_);}
	.st4{fill:url(#XMLID_20_);}
	.st5{fill:#F2F2F2;}
</style>
<g id="Layer_1">
</g>
<g id="Layer_2">
	<path id="XMLID_43_" class="st0" d="M445.8,489.3c-29.3-24.6-75.3-5.4-75.3-5.4s-46-19.3-75.3,5.4
		c-29.3,24.6-80.8,194.5-80.8,194.5h156.2h156C526.5,683.9,475.1,514,445.8,489.3z"/>
	<path id="XMLID_24_" class="st0" d="M662.4,202.1c-24.5-92.7-79.6-191.6-111.7-191.6c-36.3,0-91.6,145-91.6,145l-90.6,1.5l0,0
		l-89.7-2c0,0-54.6-145-90.8-145c-32.1,0-87.1,99-111.6,191.6c-14.2,53.9-34.1,193.8,39.2,251.8c49.9,39.5,253,34.8,253,34.8l0,0
		c3.2,0.1,200.7,7.7,253.8-34.3C695.7,395.9,676.6,256,662.4,202.1z"/>
	<path id="XMLID_33_" class="st1" d="M98.3,285.6l-3.8-0.7l-82.2-13.2c-7.9-1.3-12.4,5.9-12.4,13c0,7.2,6.1,12.6,13.2,13l81.7,8.7
		l0.1,0c5.9,0.5,10.9-3.3,11.4-9.1C106.9,292.1,103.4,286.9,98.3,285.6z"/>
	<path id="XMLID_25_" class="st2" d="M402.5,325.3c0,0,20.7,21.3,5.3,35.1c-13.8,12.3-38.6,6.5-38.4-24.5h0.2
		c0.2,31-24.6,36.8-38.4,24.5c-15.4-13.8,5.3-35,5.3-35"/>
	<linearGradient id="XMLID_19_" gradientUnits="userSpaceOnUse" x1="160.5184" y1="303.4059" x2="303.6129" y2="303.4059">
		<stop  offset="0" style="stop-color:#FF4136"/>
		<stop  offset="1" style="stop-color:#1800FF"/>
	</linearGradient>
	<circle id="XMLID_1_" class="st3" cx="232.1" cy="303.4" r="71.5"/>
	<linearGradient id="XMLID_20_" gradientUnits="userSpaceOnUse" x1="434.5184" y1="305.8586" x2="580.5184" y2="305.8586">
		<stop  offset="0" style="stop-color:#FF4136"/>
		<stop  offset="1" style="stop-color:#1800FF"/>
	</linearGradient>
	<circle id="XMLID_2_" class="st4" cx="507.5" cy="305.9" r="73"/>
	<path id="XMLID_28_" class="st1" d="M98.3,357.6l-2.8,0.7l-82.7,13.2c-7.9,1.3-12.6-5.9-12.6-13c0-7.2,5.9-12.6,13.1-13l81.6-8.7
		l0,0c5.9-0.5,10.9,3.3,11.4,9.1C106.9,351.1,103.4,356.3,98.3,357.6z"/>
	<path id="XMLID_30_" class="st1" d="M630.7,285.6l84.5-13.9c7.9-1.3,13.1,5.9,13.1,13c0,7.2-5.7,12.6-12.9,13l-81.5,8.7l0,0
		c-5.9,0.5-10.8-3.3-11.4-9.1C622,292.1,625.6,286.9,630.7,285.6z"/>
	<path id="XMLID_29_" class="st1" d="M630.7,357.6l84.5,13.9c7.9,1.3,13.1-5.9,13.1-13c0-7.2-5.7-12.6-12.9-13l-81.5-8.7l0,0
		c-5.9-0.5-10.8,3.3-11.4,9.1C622,351.1,625.6,356.3,630.7,357.6z"/>
	<ellipse id="XMLID_32_" class="st5" cx="457.5" cy="293.9" rx="15" ry="14.3"/>
	<path id="XMLID_31_" class="st5" d="M519.9,263.8c0,8.8-13.6,15.9-30.3,15.9c-16.8,0-32.7-1.4-32.7-10.2c0-8.8,19.2-29.3,36-29.3
		C509.6,240.2,519.9,255,519.9,263.8z"/>
	<ellipse id="XMLID_35_" class="st5" cx="183.5" cy="292.9" rx="15" ry="14.3"/>
	<path id="XMLID_34_" class="st5" d="M245.9,262.8c0,8.8-13.6,15.9-30.3,15.9s-32.7-1.4-32.7-10.2c0-8.8,19.2-29.3,36-29.3
		S245.9,254,245.9,262.8z"/>
	<path id="XMLID_7_" class="st1" d="M553.2,105.1c20.5,2.5,45.6,48.2,35.1,52.2s-55,5.3-68.3-6.2
		C506.7,139.7,532.7,102.6,553.2,105.1z"/>
	<path id="XMLID_10_" class="st1" d="M184,106.1c-20.5,2.5-45.6,48.2-35.1,52.2s55,5.3,68.3-6.2C230.5,140.7,204.5,103.6,184,106.1z
		"/>
</g>
</svg>
