<?xml version="1.0" encoding="utf-8"?>
<!-- Generator: Adobe Illustrator 19.0.0, SVG Export Plug-In . SVG Version: 6.00 Build 0)  -->
<svg version="1.1" xmlns="http://www.w3.org/2000/svg" xmlns:xlink="http://www.w3.org/1999/xlink" x="0px" y="0px"
	 viewBox="0 0 435.6 111.9" style="enable-background:new 0 0 435.6 111.9;" xml:space="preserve">
<style type="text/css">
	.st0{fill:#E5CDAA;stroke:#7C563C;stroke-width:20;stroke-miterlimit:10;}
	.st1{fill:#FFFFFF;}
</style>
<g id="Layer_1">
</g>
<g id="Layer_2">
	<path id="XMLID_36_" class="st0" d="M425.6,79.6c0,25.4-34.3,22.2-71.7,22.2s-76.5-0.4-76.5-25.7S316.6,10,354,10
		S425.6,54.3,425.6,79.6z"/>
	<path id="XMLID_32_" class="st1" d="M288.7,72c-3.7,10.1,2,12,7.3,14.3c2,0.9,6.2,2.1,11.7,2.8c9.3,1.3,21.7,1.9,28.9,2.2
		c10.6,0.5,32.8,0.1,45.2,0c12.3-0.1,15.7,0.1,23.5-1.7c6.7-1.6,11.9-2.5,9.8-11.1c-0.5-1.9-3.9-18.6-14.2-19.7
		c-30.7-3.3-93.1-3.4-99.3-1.7C293.4,59.4,288.7,72,288.7,72z"/>
	<path id="XMLID_31_" class="st0" d="M10,79.6c0,25.4,34.3,22.2,71.7,22.2s76.5-0.4,76.5-25.7S119,10,81.7,10S10,54.3,10,79.6z"/>
	<path id="XMLID_23_" class="st1" d="M147.3,72c3.7,10.1-2,12-7.3,14.3c-2,0.9-6.2,2.1-11.7,2.8c-9.3,1.3-21.7,1.9-28.9,2.2
		c-10.6,0.5-32.8,0.1-45.2,0c-12.3-0.1-15.7,0.1-23.5-1.7C24.1,88,18.9,87.1,21,78.5c0.5-1.9,3.9-18.6,14.2-19.7
		c30.7-3.3,93.1-3.4,99.3-1.7C142.6,59.4,147.3,72,147.3,72z"/>
</g>
</svg>
