<?xml version="1.0" encoding="utf-8"?>
<!-- Generator: Adobe Illustrator 19.0.0, SVG Export Plug-In . SVG Version: 6.00 Build 0)  -->
<svg version="1.1" xmlns="http://www.w3.org/2000/svg" xmlns:xlink="http://www.w3.org/1999/xlink" x="0px" y="0px"
	 viewBox="0 0 728.3 694" style="enable-background:new 0 0 728.3 694;" xml:space="preserve">
<style type="text/css">
	.st0{fill:#E5CDAA;stroke:#7C563C;stroke-width:20;stroke-miterlimit:10;}
	.st1{fill:#E5CDAA;stroke:#7C563C;stroke-width:20;stroke-linecap:round;stroke-linejoin:round;stroke-miterlimit:10;}
	.st2{fill:#7C563C;}
	.st3{fill:none;stroke:#7C563C;stroke-width:20;stroke-linecap:round;stroke-linejoin:round;stroke-miterlimit:10;}
	.st4{fill:#FFA1A1;}
	.st5{fill:#E5E3E1;stroke:#7C563C;stroke-width:30;stroke-linecap:round;stroke-linejoin:round;stroke-miterlimit:10;}
	.st6{fill:#FFFFFF;}
</style>
<g id="Layer_1">
</g>
<g id="Layer_2">
	<path id="XMLID_43_" class="st0" d="M439.5,489.4c-29.3-24.6-75.3-5.4-75.3-5.4s-46-19.2-75.3,5.4C259.5,514.1,208,684,208,684
		h156.2h156C520.2,684,468.8,514.1,439.5,489.4z"/>
	<path id="XMLID_24_" class="st1" d="M657.3,202.1c-24.5-92.7-79.6-191.6-111.7-191.6c-36.3,0-91.6,145-91.6,145l-90.6,1.5l0,0
		l-89.7-2c0,0-54.6-145-90.8-145c-32.1,0-87.1,99-111.6,191.6C57,255.6,37.2,395.5,110.5,453.5c49.9,39.5,253,34.8,253,34.8l0,0
		c3.2,0.1,200.7,7.7,253.8-34.3C690.6,395.9,671.6,256,657.3,202.1z"/>
	<path id="XMLID_33_" class="st2" d="M98.3,285.6l-3.8-0.7l-82.2-13.2c-7.9-1.3-12.4,5.9-12.4,13c0,7.2,6.1,12.6,13.2,13l81.7,8.7
		l0.1,0c5.9,0.5,10.9-3.3,11.4-9.1C106.9,292.1,103.4,286.9,98.3,285.6z"/>
	<path id="XMLID_25_" class="st3" d="M397.2,357.3c0,0,20.7,21.4,5.3,35.1c-13.8,12.3-38.6,6.6-38.4-24.4h0.2
		c0.2,31-24.6,36.7-38.4,24.4c-15.4-13.8,5.3-35,5.3-35"/>
	<circle id="XMLID_1_" class="st2" cx="502.1" cy="331.4" r="71.5"/>
	<path id="XMLID_28_" class="st2" d="M98.3,357.6l-2.8,0.7l-82.7,13.2c-7.9,1.3-12.6-5.9-12.6-13c0-7.2,5.9-12.6,13.1-13l81.6-8.7
		l0,0c5.9-0.5,10.9,3.3,11.4,9.1C106.9,351.1,103.4,356.3,98.3,357.6z"/>
	<path id="XMLID_30_" class="st2" d="M630.7,285.6l84.5-13.9c7.9-1.3,13.1,5.9,13.1,13c0,7.2-5.7,12.6-12.9,13l-81.5,8.7l0,0
		c-5.9,0.5-10.8-3.3-11.4-9.1C622,292.1,625.6,286.9,630.7,285.6z"/>
	<path id="XMLID_29_" class="st2" d="M630.7,357.6l84.5,13.9c7.9,1.3,13.1-5.9,13.1-13c0-7.2-5.7-12.6-12.9-13l-81.5-8.7l0,0
		c-5.9-0.5-10.8,3.3-11.4,9.1C622,351.1,625.6,356.3,630.7,357.6z"/>
	<circle id="XMLID_22_" class="st2" cx="226.1" cy="331.4" r="71.5"/>
	<path id="XMLID_7_" class="st4" d="M538.8,105.1c20.5,2.5,45.6,48.2,35.1,52.2s-55,5.3-68.3-6.2S518.3,102.6,538.8,105.1z"/>
	<path id="XMLID_10_" class="st4" d="M189.5,106.1c-20.5,2.5-45.6,48.2-35.1,52.2s55,5.3,68.3-6.2C236,140.7,210,103.6,189.5,106.1z
		"/>
	<line id="XMLID_41_" class="st5" x1="365" y1="163" x2="365" y2="196"/>
	<line id="XMLID_18_" class="st5" x1="308" y1="163" x2="308" y2="196"/>
	<line id="XMLID_20_" class="st5" x1="422" y1="163" x2="422" y2="196"/>
	<line id="XMLID_19_" class="st5" x1="365" y1="163" x2="365" y2="196"/>
	<path id="XMLID_26_" class="st6" d="M308.4,586"/>
</g>
</svg>
